<?xml version="1.0" standalone="no"?>
<!DOCTYPE svg PUBLIC "-//W3C//DTD SVG 20010904//EN"
 "http://www.w3.org/TR/2001/REC-SVG-20010904/DTD/svg10.dtd">
<svg version="1.0" xmlns="http://www.w3.org/2000/svg"
 width="300.000000pt" height="300.000000pt" viewBox="0 0 300.000000 300.000000"
 preserveAspectRatio="xMidYMid meet">
<metadata>
Created by potrace 1.10, written by Peter Selinger 2001-2011
</metadata>
<g transform="translate(0.000000,300.000000) scale(0.100000,-0.100000)"
fill="#000000" stroke="none">
<path d="M1117 2322 c-45 -50 2 -122 65 -100 49 17 61 60 28 96 -25 27 -71 29
-93 4z m71 -14 c7 -7 12 -22 12 -35 0 -31 -47 -44 -67 -18 -17 24 -16 30 3 49
19 19 36 20 52 4z"/>
<path d="M1866 2328 c-43 -24 -34 -93 12 -105 46 -11 82 29 67 73 -11 31 -52
47 -79 32z m61 -34 c9 -24 -10 -49 -38 -49 -24 0 -36 23 -25 51 7 19 55 18 63
-2z"/>
<path d="M1385 2259 c-52 -12 -114 -56 -137 -96 -29 -49 -34 -124 -13 -193 17
-56 17 -62 1 -103 -10 -27 -16 -73 -16 -124 l0 -81 -35 -21 c-19 -11 -40 -32
-47 -46 -16 -36 9 -87 56 -109 37 -17 51 -56 21 -56 -12 0 -13 -3 -3 -19 28
-46 93 -52 153 -16 62 39 125 30 125 -17 0 -9 -21 -32 -47 -50 -36 -24 -61
-33 -104 -36 -52 -4 -59 -2 -93 28 -20 18 -43 47 -51 64 -12 28 -13 29 -14 8
-2 -65 73 -122 160 -122 l54 -1 -24 -19 c-25 -21 -13 -27 19 -10 11 6 17 16
15 23 -2 6 18 26 44 43 l48 30 28 -22 c36 -28 106 -48 140 -40 24 6 26 5 20
-16 -15 -47 -34 -75 -89 -125 -55 -52 -69 -52 -41 -3 8 14 14 48 13 75 l0 50
-9 -54 c-5 -29 -20 -81 -34 -114 -13 -34 -23 -63 -21 -64 2 -2 19 11 38 29 19
18 54 51 79 73 47 41 79 90 79 122 0 10 23 37 50 61 37 32 50 50 50 70 -1 26
-2 26 -21 -10 -22 -43 -51 -65 -97 -74 -41 -8 -120 14 -132 37 -6 10 -19 21
-30 24 -25 8 -26 41 -1 55 31 16 63 12 106 -15 54 -33 99 -32 133 2 17 17 22
28 14 31 -17 5 -15 52 2 52 8 0 28 12 45 26 45 37 43 82 -4 123 -20 17 -39 31
-43 31 -4 0 -7 26 -8 57 0 32 -2 79 -5 104 l-4 46 -57 13 c-35 7 -55 17 -51
23 4 6 -1 8 -13 5 -11 -3 -26 2 -33 10 -11 11 -29 13 -73 9 -32 -3 -58 -3 -58
-1 0 2 17 8 38 14 31 8 54 6 113 -10 93 -25 133 -25 186 0 l43 19 -17 -27 -17
-27 22 19 c28 24 62 95 62 128 0 38 -85 128 -121 128 -15 0 -31 -4 -34 -10
-10 -16 -33 -12 -61 13 -42 36 -117 74 -173 86 -59 13 -70 12 -126 0z m200
-58 c36 -18 83 -53 112 -83 73 -78 77 -80 107 -68 19 7 26 17 26 35 0 32 14
32 28 0 42 -93 -39 -171 -150 -146 -24 6 -64 19 -89 30 -75 35 -169 24 -208
-23 -35 -42 -39 20 -5 71 19 30 72 63 102 63 37 0 25 17 -18 24 -45 7 -100
-12 -137 -46 -40 -38 -24 -41 19 -4 23 20 52 36 65 36 21 0 20 -3 -17 -36 -28
-25 -41 -47 -47 -77 -7 -32 -14 -43 -30 -45 -18 -3 -24 4 -33 37 -20 74 21
160 92 197 16 9 28 18 25 20 -8 8 -60 -22 -83 -48 -51 -56 -61 -102 -42 -198
6 -31 -18 -24 -34 10 -24 48 -24 145 1 190 53 99 186 125 316 61z m230 -61 c3
-5 -1 -10 -9 -10 -19 0 -21 -26 -3 -33 8 -3 6 -7 -5 -12 -27 -11 -48 2 -48 28
0 13 3 27 7 30 10 11 51 8 58 -3z m-240 -170 c28 -7 27 -8 -13 -9 -23 0 -59
-8 -79 -16 -65 -27 -71 -13 -8 19 32 17 52 18 100 6z m40 -97 l110 -28 3 -80
c4 -92 -5 -165 -19 -165 -5 0 -21 8 -35 17 -26 16 -26 17 -5 25 29 10 26 23
-6 25 -16 1 -46 5 -68 8 -49 7 -75 -6 -56 -29 8 -10 24 -13 49 -10 l37 4 -34
-13 c-18 -7 -38 -20 -45 -28 -15 -21 -79 -19 -103 3 -10 9 -30 22 -43 27 -23
10 -23 11 10 8 29 -2 35 1 35 18 0 17 -6 20 -45 18 -76 -4 -90 -8 -90 -20 0
-7 8 -13 18 -13 14 0 12 -4 -8 -20 -50 -39 -57 -30 -63 80 -6 123 3 164 46
191 28 18 43 20 117 15 47 -3 135 -18 195 -33z m-370 -297 c8 -33 6 -40 -10
-52 -16 -12 -22 -12 -39 0 -28 18 -33 66 -10 83 29 21 48 11 59 -31z m557 27
c37 -33 17 -83 -33 -83 -31 0 -49 34 -30 53 6 6 11 19 11 29 0 23 27 23 52 1z
m-379 -25 c37 -44 6 -108 -53 -108 -80 0 -96 106 -20 133 23 8 53 -2 73 -25z
m243 9 c31 -27 35 -68 8 -98 -26 -29 -81 -22 -107 13 -17 23 -18 31 -8 56 12
28 41 50 68 51 7 1 24 -9 39 -22z m-393 -41 c-6 -28 20 -82 46 -96 39 -20 91
-12 122 19 16 16 29 36 29 44 0 19 23 38 36 29 6 -4 16 -21 22 -38 27 -66 113
-84 163 -35 l29 29 0 -53 c0 -30 -5 -57 -10 -60 -6 -4 -35 5 -66 19 -57 26
-128 34 -139 16 -4 -7 -13 -6 -27 1 -27 15 -82 7 -145 -21 -29 -13 -54 -22
-57 -19 -9 10 -17 189 -8 189 5 0 7 -11 5 -24z"/>
<path d="M1540 1860 c24 -19 134 -70 150 -70 24 0 -2 17 -70 45 -92 38 -99 40
-80 25z"/>
<path d="M974 2155 c-19 -30 -11 -60 22 -82 24 -15 27 -15 52 4 15 11 28 30
30 42 8 55 -73 83 -104 36z m77 -11 c17 -21 0 -49 -32 -49 -24 0 -36 23 -25
51 7 19 40 18 57 -2z"/>
<path d="M2002 2118 c-19 -19 -14 -52 9 -66 18 -11 24 -11 40 4 23 21 24 38 3
58 -19 19 -36 20 -52 4z m45 -24 c3 -8 1 -20 -5 -26 -15 -15 -43 8 -35 28 7
19 32 18 40 -2z"/>
<path d="M911 1966 c-54 -58 -18 -146 60 -146 80 0 113 87 57 148 -30 31 -87
30 -117 -2z m97 -12 c34 -23 27 -83 -10 -104 -25 -13 -31 -13 -55 0 -37 20
-43 70 -14 99 25 25 49 27 79 5z"/>
<path d="M2070 1905 c-11 -13 -11 -18 2 -31 20 -20 50 -7 46 20 -4 26 -30 32
-48 11z"/>
<path d="M1055 1800 c-9 -15 4 -50 19 -50 8 0 19 7 26 15 10 12 10 18 0 30
-14 17 -36 20 -45 5z m39 -8 c2 -4 1 -14 -4 -22 -7 -11 -12 -12 -21 -3 -6 6
-8 16 -5 22 8 13 23 14 30 3z"/>
<path d="M1862 1787 c-43 -46 -17 -117 42 -117 66 0 99 75 53 118 -30 28 -68
28 -95 -1z m87 -29 c19 -49 -39 -87 -74 -48 -15 17 -16 24 -7 45 16 34 69 36
81 3z"/>
<path d="M739 1709 c-39 -42 -39 -92 0 -140 16 -19 36 -51 44 -71 8 -19 33
-50 54 -67 33 -26 42 -42 53 -88 7 -31 21 -71 32 -87 47 -71 154 -126 246
-126 81 0 80 17 -2 23 -152 11 -256 109 -256 241 0 42 -1 44 -35 50 -41 8 -85
63 -80 102 1 14 -3 24 -11 24 -19 0 -44 41 -44 72 0 59 85 93 123 50 27 -29
22 -88 -8 -108 -34 -22 -34 -66 1 -93 38 -30 60 -27 67 8 4 17 26 50 50 75 24
26 42 46 40 46 -23 0 -75 -35 -87 -57 -22 -43 -41 -57 -55 -39 -9 11 -6 22 15
52 51 76 9 164 -79 164 -31 0 -45 -7 -68 -31z"/>
<path d="M2114 1721 c-35 -21 -56 -67 -47 -103 4 -13 17 -37 30 -55 24 -32 24
-32 4 -43 -14 -7 -21 -7 -21 0 0 16 -78 90 -96 90 -10 0 -6 -8 14 -25 17 -14
38 -45 49 -70 11 -27 24 -45 34 -45 27 0 58 32 65 66 5 25 2 32 -19 41 -36 17
-45 67 -20 102 42 56 133 30 133 -39 0 -28 -24 -63 -49 -71 -6 -2 -12 -18 -14
-34 -7 -54 -47 -95 -92 -95 -11 0 -15 -12 -15 -45 0 -87 -48 -164 -129 -209
-41 -22 -70 -29 -134 -34 -68 -4 -77 -7 -52 -14 45 -13 143 0 194 27 87 46
134 107 146 188 6 39 14 53 45 77 23 18 44 46 51 67 6 20 23 48 36 62 53 56
55 101 9 147 -39 39 -75 44 -122 15z"/>
<path d="M1006 1585 c-56 -56 -70 -184 -29 -261 51 -96 136 -154 222 -153 l46
0 -58 19 c-97 31 -170 95 -192 170 -14 47 -8 136 14 185 23 53 22 65 -3 40z"/>
<path d="M1966 1570 c3 -14 13 -40 20 -59 14 -33 19 -111 8 -111 -3 0 -19 11
-35 25 -58 48 -136 -28 -81 -78 20 -19 67 -23 77 -7 3 6 13 10 21 10 11 0 7
-11 -14 -42 -51 -73 -89 -99 -182 -124 l-45 -12 46 -1 c92 -2 200 79 233 177
28 81 16 169 -30 219 l-25 28 7 -25z m-18 -179 c6 -40 -39 -56 -58 -20 -9 15
-8 24 1 35 18 22 53 13 57 -15z"/>
<path d="M1013 1445 c-17 -13 -17 -15 -1 -31 20 -20 48 -12 48 15 0 25 -23 33
-47 16z"/>
<path d="M1550 1391 c14 -5 40 -16 58 -25 42 -22 41 -13 -2 13 -18 12 -44 21
-57 20 l-24 -1 25 -7z"/>
<path d="M1306 1215 c10 -31 63 -95 123 -150 45 -42 53 -46 46 -25 -5 14 -10
58 -11 98 -4 112 -11 105 -26 -25 -3 -21 -6 -19 -48 20 -25 23 -55 56 -68 72
-14 20 -20 23 -16 10z"/>
<path d="M2060 1144 c-67 -55 -148 -104 -215 -129 -27 -10 -44 -20 -37 -23 26
-8 200 87 259 143 70 66 67 69 -7 9z"/>
<path d="M853 1140 c-1 -12 7 -22 20 -26 12 -4 36 -16 52 -27 34 -23 27 -15
-30 36 -35 30 -41 33 -42 17z"/>
<path d="M2085 1124 c-52 -46 -142 -99 -230 -134 -93 -38 -67 -38 31 0 l77 30
-27 -29 c-18 -19 -41 -30 -67 -34 -23 -3 -46 -13 -52 -22 -11 -14 -82 -37
-162 -52 -16 -3 -35 -10 -42 -15 -7 -5 -26 -7 -42 -3 -20 4 -38 1 -55 -10 -24
-16 -28 -16 -51 -1 -16 11 -43 16 -73 15 -75 -3 -297 64 -337 102 -53 49 -119
25 -156 -55 -40 -87 -14 -157 65 -171 19 -4 40 -13 47 -21 6 -8 17 -14 24 -14
7 0 24 -9 38 -20 14 -11 40 -20 59 -20 18 0 44 -7 56 -16 12 -8 30 -14 40 -13
9 1 25 -1 35 -6 10 -4 31 -5 48 -1 20 4 39 0 55 -10 16 -11 34 -14 56 -10 34
7 47 8 83 7 80 -2 253 18 261 30 3 5 16 9 28 9 13 0 35 9 49 20 14 11 40 20
60 20 21 0 41 7 52 20 10 11 24 20 31 20 18 0 106 50 138 77 14 13 26 30 26
38 0 26 -40 97 -82 148 l-41 49 33 29 c18 17 39 28 46 25 8 -3 14 -2 15 2 4
34 6 52 5 52 -1 -1 -19 -17 -41 -36z m-10 -190 c43 -71 51 -104 25 -104 -6 0
-18 16 -27 35 -9 19 -20 35 -24 35 -19 0 -19 -23 1 -55 19 -31 20 -36 5 -41
-20 -8 -18 -10 -70 78 -31 52 -40 77 -33 86 16 19 23 15 42 -24 13 -28 20 -34
29 -25 8 8 7 18 -6 41 -17 29 -16 50 3 50 5 0 29 -34 55 -76z m-1027 -8 c12
-25 11 -33 -15 -84 -23 -47 -33 -58 -56 -60 -35 -4 -67 22 -67 55 0 34 46 121
67 125 30 7 57 -7 71 -36z m863 -15 c18 -15 21 -22 13 -31 -9 -9 -17 -8 -33 1
-15 10 -23 11 -32 2 -18 -18 17 -113 41 -113 12 0 20 8 22 23 4 28 32 29 36 0
6 -44 -68 -84 -96 -50 -6 6 -20 37 -32 67 -24 61 -17 94 22 110 32 12 33 12
59 -9z m-761 -22 c0 -7 -10 -38 -21 -70 -20 -55 -20 -97 0 -85 4 3 17 35 27
72 17 60 35 86 51 71 7 -7 -35 -147 -49 -164 -15 -18 -42 -16 -69 6 l-23 19
18 58 c29 93 35 104 51 104 8 0 15 -5 15 -11z m654 -94 c15 -47 24 -90 21 -95
-9 -15 -35 -12 -35 5 0 8 -11 48 -24 89 -13 41 -21 78 -18 81 17 17 33 -4 56
-80z m-547 67 c6 -4 15 -34 20 -67 l10 -60 7 58 c7 48 12 57 28 57 16 0 19 -5
14 -22 -3 -13 -11 -56 -18 -95 -11 -66 -14 -73 -35 -73 -21 0 -23 4 -23 61 0
71 -15 71 -25 -1 -4 -32 -12 -50 -20 -50 -23 0 -24 12 -2 108 21 93 23 98 44
84z m473 -20 c0 -9 9 -50 19 -89 17 -71 17 -73 -1 -79 -11 -3 -21 -4 -22 -2
-1 1 -15 24 -30 51 -15 26 -28 47 -31 47 -2 0 3 -24 11 -52 7 -29 14 -54 14
-55 0 -2 -8 -3 -19 -3 -15 0 -21 14 -34 78 -8 42 -17 84 -19 92 -2 8 6 16 18
18 16 2 25 -6 39 -38 29 -65 46 -70 28 -9 -12 42 -13 53 -2 60 17 10 29 2 29
-19z m-278 -19 c10 -9 18 -24 18 -35 0 -26 -36 -23 -43 4 -5 18 -8 19 -21 8
-22 -17 -23 -120 -1 -120 7 0 18 7 23 17 15 26 44 9 33 -19 -12 -34 -53 -45
-85 -24 -29 18 -33 57 -16 130 13 57 53 74 92 39z m145 -78 c30 -90 30 -95 12
-95 -12 0 -23 10 -29 25 -8 22 -13 24 -30 15 -11 -6 -20 -20 -20 -30 0 -14 -7
-20 -21 -20 -15 0 -19 5 -15 18 3 9 10 49 16 87 15 92 16 95 38 95 14 0 25
-21 49 -95z"/>
<path d="M963 883 c-21 -51 -20 -73 3 -73 18 0 58 85 50 106 -11 28 -34 13
-53 -33z"/>
<path d="M935 1115 c22 -20 54 -43 70 -51 17 -8 22 -9 11 -2 -10 7 -41 30 -70
51 l-51 39 40 -37z"/>
</g>
</svg>
